<svg width="74" height="74" viewBox="0 0 74 74" fill="none" xmlns="http://www.w3.org/2000/svg">
<g clip-path="url(#clip0_224_5034)">
<path d="M72.0481 39.065C72.0481 39.1476 72.0303 39.2963 72.0126 39.4551C71.9301 40.1996 71.3708 41.4382 72.1724 41.6288C72.2523 41.6479 72.3373 41.6491 72.4223 41.6339C72.4362 41.6314 72.4527 41.6339 72.4641 41.625C73.8961 40.4956 74.2145 34.4114 73.8771 33.4509C73.6653 32.8475 73.1085 32.2669 72.4946 32.3799C72.3969 32.3977 72.3005 32.4333 72.2092 32.4866C71.4393 32.9288 71.2237 33.9172 71.5687 35.4239C71.8642 36.7096 72.0583 37.8213 72.0468 39.0663L72.0481 39.065ZM16.518 35.664C17.0887 35.0136 17.5428 34.4622 17.9119 33.9883C18.2747 33.536 18.6463 33.0596 19.0065 32.5908C18.6881 33.7774 18.3698 34.6299 18.3698 34.6299C18.2391 34.9424 17.6811 36.2726 17.7343 37.3156C17.7889 38.3587 18.8378 38.7728 18.8378 38.7728C20.7353 39.3496 21.5204 37.6637 22.1216 36.2726C22.7228 34.8827 23.1629 31.7307 23.3012 30.8973C23.4394 30.0639 23.9252 28.6029 24.8739 27.1431C25.8227 25.6834 26.3769 26.4711 26.5862 27.1431C26.7942 27.8152 27.696 28.6257 27.9738 28.58C28.2516 28.5343 28.4824 28.4174 28.7602 28.3488C29.038 28.2789 29.5009 28.1862 29.8244 27.5611C30.1478 26.936 29.8472 25.893 29.8472 25.893C29.662 24.8042 28.4596 23.6456 26.5393 24.2706C24.619 24.8957 23.9252 26.6108 23.9252 26.6108C24.203 25.7532 23.6474 24.0153 21.6815 24.4332C19.7155 24.85 19.6914 26.0086 19.6458 28.674C19.6381 29.1263 19.595 29.5951 19.5316 30.0652C18.1326 31.4563 16.6347 32.8919 16.6347 32.8919C16.6347 32.8919 16.6321 32.9021 16.6271 32.9148C16.1527 33.3378 15.8153 33.6478 15.8153 33.6478C15.0771 34.2526 14.3022 34.7277 13.4917 35.0733C12.6812 35.4201 11.872 35.6259 11.0666 35.6907C10.2523 35.7568 9.48745 35.6577 8.77463 35.3922C8.06181 35.1266 7.17142 34.5117 6.64505 33.9172C6.11868 33.3226 5.70266 32.5679 5.39699 31.6532C5.09131 30.7385 4.93911 29.665 4.93911 28.4326C4.93911 27.7783 5.00253 27.1253 5.13063 26.4723C5.25747 25.8206 5.44391 25.1904 5.69125 24.5844C5.93731 23.9784 6.23918 23.4067 6.59559 22.8719C6.952 22.337 7.35914 21.8657 7.81829 21.4591C8.27617 21.0513 8.77971 20.7197 9.32637 20.4631C9.60795 20.331 9.89967 20.2268 10.1965 20.1506C10.3753 20.1048 11.0805 20.021 11.1287 20.5203C11.2391 21.6649 12.066 22.5415 13.2228 22.4475C14.3795 22.3535 15.3168 21.3384 15.3168 20.1798C15.3168 19.6513 15.1202 19.1863 14.7981 18.8433C14.5964 18.5943 14.3389 18.3719 14.0218 18.1814C13.6604 17.9641 13.2456 17.7964 12.7738 17.677C12.3032 17.5576 11.8124 17.5194 11.3037 17.5614C10.166 17.6541 9.09553 17.898 8.08972 18.2944C7.08391 18.6908 6.16308 19.199 5.32723 19.8202C4.49138 20.4415 3.74177 21.1517 3.07969 21.9546C2.41761 22.7575 1.85953 23.6049 1.40545 24.5006C0.95138 25.3962 0.603849 26.3237 0.361592 27.2829C0.119335 28.2421 -0.00115967 29.1847 -0.00115967 30.1122C-0.00115967 30.9113 0.0838205 31.7015 0.253781 32.4828C0.423741 33.2642 0.683755 33.9985 1.03636 34.6883C2.37955 37.3182 5.11414 39.0015 8.0022 39.3623C11.3989 39.7867 14.3364 38.1541 16.5167 35.6666L16.518 35.664ZM70.2191 25.7202C69.4327 27.8381 67.274 30.0829 64.9643 30.2697C64.514 30.3065 64.1246 30.2684 63.7936 30.1541C63.4626 30.041 63.1797 29.8746 62.9476 29.6561C62.7142 29.4376 62.5278 29.172 62.387 28.8595C62.2475 28.5482 62.1511 28.2154 62.1003 27.8622C63.0503 27.6831 63.8634 27.4086 64.5381 27.0389C65.2129 26.6692 65.7621 26.2589 66.187 25.8079C66.6119 25.3569 66.9214 24.8982 67.1167 24.432C67.312 23.9657 67.4097 23.5414 67.4097 23.159C67.4097 22.7766 67.3311 22.4018 67.1738 22.0626C67.0165 21.7234 66.8022 21.4299 66.5307 21.1834C66.2809 20.9586 65.9891 20.7832 65.6581 20.6537C65.1558 20.458 64.4823 20.4491 63.9547 20.5215C63.3865 20.599 62.8499 20.7362 62.3489 20.937C61.7249 21.1872 61.1605 21.5049 60.6557 21.8911C60.1509 22.276 59.7057 22.7207 59.3188 23.2238C59.0525 23.5706 58.8178 23.934 58.6098 24.31C58.5591 24.3723 58.516 24.4421 58.4855 24.5222C58.464 24.5768 58.4373 24.6327 58.4158 24.6873C58.3929 24.7343 58.3676 24.7801 58.346 24.8271C58.3358 24.85 58.327 24.8741 58.3156 24.897C58.1621 25.2667 57.4619 27.072 57.5812 28.9675C57.6243 29.4998 57.7258 30.0131 57.8868 30.5073C58.1075 31.1819 58.464 31.7676 58.9561 32.263C59.4482 32.7585 60.0887 33.1333 60.8789 33.3887C61.6691 33.6428 62.6318 33.7241 63.7695 33.6313C67.2309 33.3493 70.4525 29.59 71.6955 26.5054C71.8781 26.0531 72.0747 25.2158 72.0418 24.5006C72.0062 23.7154 71.6942 23.0751 70.7835 23.2479C70.4043 23.3191 70.0187 23.4906 69.8335 23.8641C69.6496 24.2338 69.741 24.7039 69.954 25.0088C70.1227 25.2501 70.3498 25.3696 70.2204 25.7202H70.2191ZM62.2462 25.2692C62.3527 24.8309 62.4961 24.4421 62.6787 24.0991C62.8614 23.7574 63.0846 23.4753 63.3471 23.2543C63.6097 23.0332 63.9116 22.9087 64.2515 22.8808C64.599 22.8528 64.8387 22.9176 64.9706 23.0777C65.1026 23.2378 65.1685 23.4448 65.1685 23.6989C65.1685 24.047 65.0835 24.3837 64.9136 24.7077C64.7436 25.0316 64.514 25.3251 64.2261 25.5855C63.9369 25.8473 63.6046 26.067 63.2266 26.2475C62.8487 26.4266 62.4568 26.5498 62.0496 26.6172C62.075 26.156 62.1409 25.7062 62.2475 25.2679L62.2462 25.2692ZM30.3317 28.0464C28.9796 31.1641 29.9613 34.9513 32.8304 35.9944C35.6994 37.0374 39.3536 35.8089 41.7825 32.3571C41.7825 32.3571 41.7939 32.3405 41.8091 32.3164C42.2594 31.746 42.7857 31.0434 43.2715 30.3091C42.9785 33.4687 41.8751 37.2928 41.8751 37.2928C40.4405 40.7916 41.0417 41.996 42.1528 42.4597C43.2626 42.9234 44.304 42.3898 45.2984 40.0039C46.2928 37.6167 46.4551 34.9755 46.6859 33.1689C46.9168 31.361 47.6575 28.6511 49.0692 26.2868C49.4497 25.6503 49.8289 25.3111 50.1828 25.1866C50.1828 25.1866 51.6059 24.526 52.1957 25.8993C52.4088 26.3961 52.4709 26.9449 52.4151 27.4811C52.4151 27.4811 52.4151 27.4874 52.4139 27.4912C52.4088 27.537 52.4025 27.5827 52.3961 27.6272C52.1729 29.3817 51.0161 30.2608 51.0161 30.2608C50.4111 29.778 49.4193 30.0067 49.0781 30.1071C47.9797 30.6064 47.3607 31.6367 47.4977 32.6594C47.7057 34.2119 49.7414 35.7644 53.2117 33.2388C56.6819 30.7131 56.7973 27.1914 56.3572 24.6187C55.9171 22.0473 52.7715 20.5635 50.2729 22.2087C47.7742 23.8539 47.0804 27.7237 47.0804 27.7237C47.4964 24.7814 47.1261 23.1132 45.1144 23.2975C43.1536 23.4779 43.1701 25.1155 43.321 28.1989C43.0267 28.6893 42.5638 29.3524 41.799 30.2062C41.4349 30.5454 41.0646 30.9418 40.835 31.1984C40.2338 31.8705 38.6141 33.3302 36.6253 33.0063C34.6353 32.6823 34.3118 31.1755 34.289 30.5733C34.289 30.5733 37.5969 29.994 38.8919 27.8851C40.1869 25.7761 39.5628 24.5247 38.5443 23.6913C37.5271 22.8566 35.5371 22.8337 33.6168 24.0153C33.6168 24.0153 31.789 24.6873 30.3317 28.0464ZM34.478 27.9638C34.5845 27.5255 34.7278 27.1368 34.9105 26.7937C35.0931 26.452 35.3151 26.17 35.5789 25.9489C35.8415 25.7278 36.1433 25.6033 36.4833 25.5754C36.8308 25.5474 37.0705 25.6122 37.2024 25.7723C37.3343 25.9311 37.4003 26.1395 37.4003 26.3936C37.4003 26.7417 37.3153 27.0783 37.1453 27.4023C36.9754 27.7263 36.7458 28.0197 36.4579 28.2802C36.1687 28.5419 35.8364 28.7617 35.4584 28.9421C35.0804 29.1212 34.6885 29.2444 34.2814 29.3118C34.3067 28.8506 34.3727 28.4009 34.4792 27.9626L34.478 27.9638ZM65.2852 37.4147C65.0442 37.2572 64.7385 37.2229 64.4633 37.308C63.63 37.5672 62.5684 38.7207 62.1929 39.6393C61.8061 40.5883 62.1536 41.0978 62.9983 40.925C63.876 40.7458 65.3486 39.9531 65.667 38.8414C65.7761 38.4616 65.7583 38.0207 65.5642 37.7031C65.4907 37.5824 65.3943 37.4859 65.2852 37.4147ZM34.8762 21.0564C35.4686 20.6168 35.6119 19.7161 36.3133 19.4073C36.4934 19.3286 36.6519 19.3019 36.794 19.3159C37.3102 19.3667 37.6032 19.9447 37.8493 20.4301C37.985 20.6981 38.2209 21.1237 38.5697 21.1237C39.7188 21.1237 38.3313 18.7327 38.0509 18.3668C37.6362 17.8244 37.0109 17.494 36.3247 17.494C35.7857 17.494 35.3024 17.5881 34.8737 17.7748C33.9656 18.1712 32.772 19.0262 32.7251 20.1226C32.7048 20.5939 32.9065 21.045 33.3567 21.233C33.7816 21.4108 34.5122 21.3245 34.875 21.0551L34.8762 21.0564ZM12.0242 13.7716C12.1764 13.8161 12.3337 13.8415 12.4871 13.8491C13.6147 13.8999 14.5305 12.9674 15.0987 12.1759C17.572 8.73428 20.7036 6.06379 24.1535 4.45285C29.1838 2.10379 34.8395 0.997226 40.5103 1.25386C42.7312 1.35422 44.9293 1.66675 47.0436 2.18256C49.3051 2.73393 51.5501 3.5267 53.7177 4.53925C55.0724 5.17193 56.4117 5.89736 57.6979 6.69774C60.1902 8.24642 62.0154 9.68839 63.4423 11.2358C64.1513 12.0044 64.8362 12.8709 65.5985 13.9635C66.4077 15.1234 67.0825 16.4434 67.5809 17.4648L67.6722 17.6541C68.0236 18.3923 68.6768 19.7669 69.4733 19.8025C69.6648 19.8113 69.8538 19.7415 70.0365 19.5941C70.8089 18.9754 70.0403 17.6401 69.6281 16.9223L69.5735 16.8283C68.2202 14.4602 67.0672 12.9204 65.4653 11.3387C63.4423 9.34155 61.5131 7.723 59.5674 6.38902C57.7384 5.13509 55.8169 4.0552 53.856 3.17732C53.1432 2.85844 52.4164 2.56115 51.6934 2.29309C49.4954 1.47873 47.2313 0.872722 44.9635 0.494127C43.5468 0.256553 42.0907 0.104098 40.6371 0.0380348C30.1224 -0.438385 19.5595 3.61309 12.3844 10.8724C12.3222 10.9347 12.2576 10.9982 12.1916 11.063L12.1738 11.0795C11.7895 11.4581 11.3519 11.8863 11.1655 12.3754C11.0615 12.6485 11.0678 12.9153 11.1845 13.1478C11.3291 13.4349 11.6259 13.656 12.0216 13.7716H12.0242ZM57.9046 39.9505C58.0264 40.8894 58.2686 41.3239 58.5984 41.3582C58.9282 41.3925 59.7082 40.7497 59.6042 39.0295C59.5002 37.3093 58.8229 36.5445 57.9033 36.3526C56.9838 36.1621 55.3362 36.2484 53.8788 38.473C52.5077 40.5667 51.5045 42.9374 51.1455 48.6836C50.4758 50.5537 49.2214 52.3031 48.5073 53.2268C47.7552 54.1999 47.2554 54.2698 46.8876 54.2114C46.2978 54.1186 46.3574 53.4529 46.3574 53.4529C46.2877 52.758 46.8356 50.2374 46.9739 48.535C47.1121 46.8326 46.2103 46.3625 45.1005 46.3104C44.3737 46.2761 43.8499 46.7398 43.5734 47.0651C43.3413 46.783 41.9461 45.3195 39.0631 46.8491C35.929 48.5134 35.2136 50.8193 34.8788 52.3997C34.2763 53.0603 33.7512 53.6562 33.7512 53.6562L33.7563 53.66C33.3923 54.0233 32.9864 54.4007 32.5374 54.7666C31.8461 55.2989 30.957 55.8071 30.1529 56.1793C29.3525 56.549 28.5332 56.7319 27.7278 56.7967C26.9135 56.8628 26.1486 56.7637 25.4358 56.4982C24.723 56.2327 24.0064 55.4996 23.4813 54.905C22.9549 54.3105 22.6302 53.5164 22.3245 52.603C22.0189 51.6882 21.8667 50.6147 21.8667 49.3824C21.8667 48.7281 21.9301 48.0751 22.0582 47.4221C22.185 46.7703 22.3715 46.1402 22.6188 45.5342C22.8649 44.9282 23.1667 44.3565 23.5231 43.8216C23.8795 43.2868 24.2867 42.8154 24.7458 42.4089C25.2037 42.0011 25.7073 41.6695 26.2539 41.4128C26.5355 41.2807 26.8272 41.1765 27.124 41.1003C27.3029 41.0546 28.0081 40.9707 28.0563 41.47C28.1666 42.6147 28.9936 43.4913 30.1503 43.3973C31.3071 43.3033 32.2444 42.2882 32.2444 41.1295C32.2444 40.601 32.0478 40.136 31.7256 39.793C31.524 39.544 31.2665 39.3217 30.9494 39.1311C30.5879 38.9139 30.1732 38.7462 29.7013 38.6267C29.2308 38.5073 28.7399 38.4692 28.2313 38.5111C27.0936 38.6039 26.0231 38.8478 25.0173 39.2442C24.0115 39.6406 23.0906 40.1487 22.2548 40.77C21.4189 41.3912 20.6693 42.1014 20.0072 42.9043C19.3452 43.706 18.7871 44.5547 18.333 45.4503C17.8789 46.346 17.5314 47.2734 17.2891 48.2326C17.0469 49.1918 16.9264 50.1345 16.9264 51.0619C16.9264 51.861 17.0114 52.6512 17.1813 53.4326C17.3513 54.2139 17.6113 54.9482 17.9639 55.6381C19.3071 58.2679 22.0417 59.9513 24.9297 60.3121C28.3264 60.7364 31.3489 59.175 33.4443 56.6163V56.6125C33.5838 56.4283 34.0848 55.7689 34.6657 54.9038C34.7875 56.4791 35.5371 58.1256 38.0928 58.4407C40.7995 58.7748 42.0755 56.4995 42.6272 54.9304C42.6614 55.0791 42.7134 55.2633 42.7883 55.4831C42.7895 55.5187 42.7959 55.5542 42.806 55.5898C43.1295 56.6786 43.9158 57.8601 45.2692 57.7216C46.6225 57.5831 47.5941 56.8183 48.7394 55.4856C49.7249 54.3384 50.7092 52.5687 50.9641 52.0973C50.9045 53.2255 50.8348 54.5595 50.7828 55.5911C50.7371 56.4893 50.4619 58.8269 50.4619 58.9273C50.4619 58.9273 49.1428 59.518 48.345 60.96C47.5472 62.402 47.6854 64.4004 48.9005 64.7663C50.1156 65.1309 52.3352 64.5401 53.4463 60.7872C53.738 59.8014 54.2264 57.0546 54.4356 55.9417C54.9202 53.3716 55.2081 50.6287 55.4085 48.46C55.5683 48.3825 55.7141 48.3139 55.8422 48.258C56.8366 47.8172 57.878 47.1464 57.878 46.3816C57.878 45.6168 57.7625 45.2458 56.8607 45.2458C56.6083 45.2458 56.2037 45.3068 55.7167 45.4452C56.0401 42.9844 56.536 40.817 56.8468 40.0382C57.2286 39.0828 57.7841 39.013 57.9046 39.9518V39.9505ZM43.1219 48.6227C42.8834 49.7025 42.6526 51.0924 42.5498 51.5536C42.2441 52.9308 41.6493 54.3714 40.4913 55.243C40.2072 55.4564 39.8622 55.6368 39.54 55.5771C39.1024 55.4958 38.8982 55.0194 38.817 54.5798C38.3947 52.2815 39.9852 49.5628 42.2784 48.6633C42.5612 48.5528 42.8986 48.4181 43.1853 48.258C43.165 48.3711 43.1434 48.4943 43.1219 48.6227ZM71.4697 45.3589C71.0905 45.43 70.7049 45.6015 70.5197 45.975C70.3358 46.3447 70.4271 46.8148 70.6402 47.1197C70.8089 47.3611 71.0359 47.4805 70.9066 47.8312C70.1202 49.949 67.9614 52.1939 65.6518 52.3806C65.2015 52.4175 64.8121 52.3794 64.4811 52.265C64.15 52.152 63.8672 51.9855 63.6351 51.767C63.4017 51.5485 63.2152 51.283 63.0744 50.9704C62.9349 50.6592 62.8385 50.3263 62.7878 49.9731C63.7378 49.794 64.5508 49.5196 65.2256 49.1499C65.9004 48.7802 66.4496 48.3698 66.8745 47.9188C67.2994 47.4678 67.6088 47.0092 67.8042 46.5429C67.9995 46.0767 68.0972 45.6523 68.0972 45.2699C68.0972 44.8875 68.0185 44.5127 67.8612 44.1735C67.704 43.8343 67.4896 43.5408 67.2182 43.2944C66.9683 43.0695 66.6766 42.8942 66.3456 42.7646C65.8433 42.5689 65.1698 42.5601 64.6421 42.6325C64.0739 42.71 63.5374 42.8472 63.0364 43.0479C62.4124 43.2982 61.8479 43.6158 61.3431 44.002C60.8383 44.387 60.3931 44.8316 60.0063 45.3347C59.7399 45.6816 59.5053 46.0449 59.2973 46.421C59.2465 46.4832 59.2034 46.5531 59.173 46.6331C59.1514 46.6878 59.1248 46.7436 59.1032 46.7983C59.0804 46.8453 59.055 46.891 59.0334 46.938C59.0233 46.9609 59.0144 46.985 59.003 47.0079C58.8495 47.3776 58.1494 49.1829 58.2686 51.0784C58.3117 51.6108 58.4132 52.124 58.5743 52.6182C58.795 53.2928 59.1514 53.8785 59.6435 54.374C60.1357 54.8695 60.7762 55.2442 61.5664 55.4996C62.3566 55.7537 63.3192 55.835 64.457 55.7423C67.9183 55.4602 71.14 51.701 72.3829 48.6163C72.5656 48.164 72.7622 47.3268 72.7292 46.6115C72.6937 45.8264 72.3817 45.1861 71.471 45.3589H71.4697ZM62.9337 47.3801C63.0402 46.9418 63.1835 46.5531 63.3662 46.2101C63.5488 45.8683 63.772 45.5863 64.0346 45.3652C64.2971 45.1441 64.599 45.0196 64.9389 44.9917C65.2865 44.9637 65.5262 45.0285 65.6581 45.1886C65.79 45.3474 65.856 45.5558 65.856 45.8099C65.856 46.158 65.771 46.4946 65.601 46.8186C65.4311 47.1426 65.2015 47.436 64.9136 47.6965C64.6244 47.9582 64.2921 48.178 63.9141 48.3584C63.5361 48.5375 63.1442 48.6608 62.7371 48.7281C62.7624 48.2669 62.8284 47.8172 62.9349 47.3789L62.9337 47.3801ZM64.7423 59.5816C63.6807 59.5816 62.9603 60.6754 62.4352 61.4745C62.3705 61.5736 62.3071 61.6689 62.2462 61.7591C59.1958 66.2591 53.9701 68.7098 49.7579 70.3423C45.7309 71.9024 41.5466 72.6939 37.3178 72.6939C36.8206 72.6939 36.3171 72.6825 35.8224 72.6596C35.4927 72.6443 35.1578 72.624 34.828 72.5986C25.1555 71.8592 15.9066 66.7761 10.0874 59.0022C7.08391 54.9902 5.51494 50.8472 5.54919 47.0232C5.5568 46.177 5.57075 44.6042 4.4825 44.2345C4.36454 44.1939 4.24024 44.1735 4.11594 44.1735C3.46273 44.1735 2.80826 44.7135 2.59264 45.43C2.35165 46.2317 2.57108 47.1083 2.79558 47.868C6.12376 59.1166 15.1799 68.4239 26.4289 72.1565C30.1186 73.3812 34.0239 74.0012 38.037 74.0012C43.751 74.0012 49.4928 72.7193 54.6411 70.294C58.5781 68.4391 61.5359 66.47 63.6858 64.2708C65.5744 62.3397 66.2035 60.9219 65.5566 60.0593C65.3169 59.7404 65.0493 59.5841 64.7398 59.5816H64.7423Z" fill="#F16664"/>
</g>
<defs>
<clipPath id="clip0_224_5034">
<rect width="74" height="74" fill="white"/>
</clipPath>
</defs>
</svg>
